<svg width="16" height="16" viewBox="0 0 16 16" fill="none" xmlns="http://www.w3.org/2000/svg">
<path fill-rule="evenodd" clip-rule="evenodd" d="M7.5 1C5.77609 1 4.12279 1.68482 2.90381 2.90381C1.68482 4.12279 1 5.77609 1 7.5C1 9.22391 1.68482 10.8772 2.90381 12.0962C4.12279 13.3152 5.77609 14 7.5 14C9.22391 14 10.8772 13.3152 12.0962 12.0962C13.3152 10.8772 14 9.22391 14 7.5C14 5.77609 13.3152 4.12279 12.0962 2.90381C10.8772 1.68482 9.22391 1 7.5 1ZM7.5 13C6.04131 13 4.64236 12.4205 3.61091 11.3891C2.57946 10.3576 2 8.95869 2 7.5C2 6.04131 2.57946 4.64236 3.61091 3.61091C4.64236 2.57946 6.04131 2 7.5 2C8.95869 2 10.3576 2.57946 11.3891 3.61091C12.4205 4.64236 13 6.04131 13 7.5C13 8.95869 12.4205 10.3576 11.3891 11.3891C10.3576 12.4205 8.95869 13 7.5 13ZM9.05 4.58C8.87723 4.4001 8.6697 4.25721 8.44 4.16C8.151 4.04429 7.84114 3.98981 7.53 4C7.22801 3.99452 6.92822 4.05243 6.65 4.17C6.411 4.27 6.2 4.424 6.03 4.62C5.86439 4.80012 5.73534 5.01068 5.65 5.24C5.57066 5.47294 5.52028 5.71476 5.5 5.96H6.73C6.73567 5.80129 6.78621 5.64743 6.87577 5.51628C6.96533 5.38512 7.09024 5.28205 7.236 5.219C7.33261 5.18094 7.43632 5.16422 7.54 5.17C7.62944 5.15578 7.72056 5.15578 7.81 5.17C7.89216 5.20107 7.96705 5.24873 8.03 5.31C8.09947 5.37012 8.15421 5.44538 8.19 5.53C8.23097 5.62464 8.25141 5.72688 8.25 5.83C8.25 6.003 8.213 6.173 8.14 6.33C8.06737 6.49289 7.97681 6.64717 7.87 6.79L7.52 7.21C7.4 7.34 7.28 7.48 7.17 7.62C7.06334 7.75935 6.97277 7.91031 6.9 8.07C6.83062 8.22739 6.79649 8.39804 6.8 8.57V9.23H8V8.74C8.00339 8.59333 8.04106 8.4495 8.11 8.32C8.19218 8.17604 8.28582 8.03893 8.39 7.91L8.75 7.47C8.88106 7.3186 9.00135 7.15821 9.11 6.99C9.22492 6.81848 9.31892 6.63384 9.39 6.44C9.46293 6.23451 9.50013 6.01805 9.5 5.8C9.50178 5.57282 9.46804 5.34676 9.4 5.13C9.32448 4.92351 9.20507 4.73586 9.05 4.58ZM6.8 9.83H7.97V11H6.8V9.83Z" fill="#0C884C"/>
</svg>
